<svg enable-background="new 0 0 1069.8 837.5" viewBox="0 0 1069.8 837.5" xmlns="http://www.w3.org/2000/svg" xmlns:xlink="http://www.w3.org/1999/xlink"><linearGradient id="a"><stop offset="0" stop-color="#808080" stop-opacity=".25"/><stop offset=".54" stop-color="#808080" stop-opacity=".12"/><stop offset="1" stop-color="#808080" stop-opacity=".1"/></linearGradient><linearGradient id="b" gradientTransform="matrix(.9875 -.1575 -.1575 -.9875 8.0632 931.6516)" gradientUnits="userSpaceOnUse" x1="641.6255" x2="641.6255" xlink:href="#a" y1="369.64" y2="482.9037"/><linearGradient id="c" gradientTransform="matrix(.9875 -.1575 -.1575 -.9875 8.0632 931.6516)" gradientUnits="userSpaceOnUse" x1="388.4619" x2="446.9819" xlink:href="#a" y1="442.8346" y2="442.8346"/><path d="m158.4 541.6c0 2.6-1.9 4.8-4.2 4.8h-6c2.3 0 4.2 2.1 4.2 4.8 0 2.6-1.9 4.8-4.2 4.8h8.4c2.3 0 4.2 2.1 4.2 4.8 0 2.6-1.9 4.8-4.2 4.8h-39.7c27.1 86.1 78 161.4 144.9 218.2.7-.5 1.5-.8 2.4-.8h48.9c2.3 0 4.2 2.1 4.2 4.8 0 2.6-1.9 4.8-4.2 4.8h-6c2.3 0 4.2 2.1 4.2 4.8s-1.9 4.8-4.2 4.8h8.5c2.3 0 4.2 2.1 4.2 4.8 0 2.6-1.9 4.8-4.2 4.8h-17.4c74.9 51.9 165.6 82.3 263.3 82.3 57.9.1 115.4-10.8 170.1-32.4 7.3-2.9 14.4-6 21.5-9.2 12.4-5.7 24.4-11.8 36.2-18.5 5.1-2.9 10.1-5.9 15.1-8.9l.2-.1 1.1-.7 2.9-1.8c5.9-3.7 11.7-7.6 17.3-11.5l3.5-2.5c3-2.1 5.9-4.2 8.8-6.4 5.8-4.3 11.5-8.8 17.1-13.4l2-1.7 1.6-1.3c7.5-6.3 14.8-12.8 21.9-19.6l.3-.3c3.5-3.3 6.9-6.7 10.3-10.1l.3-.3c11-11.2 21.5-23 31.5-35.4 14.9-18.5 28.6-38.4 40.8-59.4h-19.5c-2.3 0-4.2-2.1-4.2-4.8 0-2.6 1.9-4.8 4.2-4.8h-8.5c-2.3 0-4.2-2.1-4.2-4.8 0-2.6 1.9-4.8 4.2-4.8h6c-2.3.1-4.3-1.9-4.4-4.6-.1-2.6 1.7-4.9 4-5h.4 37.3c31-63.1 48.4-134.3 48.4-209.6 0-47.5-7-94.6-20.7-139.5h-83c-4.9-.2-8.8-4.9-8.6-10.5.2-5.3 3.9-9.6 8.6-9.8h-17.9c-4.9 0-8.9-4.5-8.9-10.1s4-10.1 8.9-10.1h12.9c-4.9-.2-8.8-4.9-8.6-10.5.2-5.3 3.9-9.6 8.6-9.8h64.9c-74.4-160.4-235.6-271.5-422.5-271.5-109.1 0-209.5 37.9-289 101.4h20.8c4.9.2 8.8 4.9 8.6 10.5-.2 5.3-3.9 9.6-8.6 9.8h-12.7c4.9 0 8.9 4.5 8.9 10.1s-4 10.1-8.9 10.1h17.9c4.9-.2 9.1 4.2 9.2 9.8.2 5.6-3.7 10.3-8.6 10.5-.2 0-.4 0-.6 0h-88.9c-71.3 82.8-114.5 191.1-114.5 309.6 0 38.8 4.7 77.3 13.9 114.7h45.3c2.3 0 4.2 2.1 4.2 4.7z" fill="#4285f4" opacity=".1"/><path d="m816.4 347.9c-4.2-.4-18.7-12.1-27.1-15.5-3.9-1.6-6.3 1.8-7.8 5.9-5.2-3.4-10.8-7.1-15-8.8-1.1-.5-2.4-.5-3.5-.1-5.4 2.4-6.6 16.5-6.6 16.5l.2.9c-2.7 2.1-10.6 3.4-14.1 3.6-4.1.3-9.4.9-11.3 1.8s-24 6.3-36.7 10.1c-12.7 3.9-45.5 23.2-45.5 23.2l-31.1 7-4.4-.8c-1.4-5-7.8-5-15.2-2.9-12.1-2.2-24.2-4-28.1-2.2 11.2-5.7 24.9-14.7 24.7-24.6-.2-13.6-27.1 5.5-37.2 13.1l-.9.7-.2-.9s-7.4 2.9-23.2 2.5-22.8 7-24.2 7.8-15.9 5.6-17 5.8c-.9.1-25.8 2.4-38.4 3.5-17.4-1.6-42.5 1.2-43.9 3.8-1.6 3-20.7 13.9-20.7 13.9l-6.6 1.7s-.8 2-1.7 4.6c-.6-1-1.2-2-1.6-3.1-1-2.7-1.8-5.4-2.3-8.2-.1-.4-.2-.7-.3-1.1 0-.1 0-.2-.1-.3l-.2-.9-.1-.2c-.3-1.2-.7-2.4-1.2-3.5-.5-1.2-1-2.3-1.7-3.3-1-1.5-2.2-2.8-3.8-3.8-2.5-1.5-5.5-1.9-8.5-2.2-2.5-.4-4.9-.5-7.4-.3-2.1.2-4.2.8-6.4.9-3.4.2-6.8-.8-10.2-1.3s-7.1-.5-10 1.4c-2.4 1.6-3.9 4.4-5.4 6.8-2.9 4.6-6.7 8.7-11.2 11.9-3 2.2-6.4 4.3-7.5 7.8s.4 6.9 1.1 10.3c1.5 7.6-.9 15.9 1.8 23 .1.2.1.3.2.5.1.4.3.8.5 1.1.2.3.4.7.6 1s.4.6.7.9c.2.3.5.5.8.8.3.2.6.4.9.6 1.2.5 2.6.7 3.9.5l.7-.1.7-.1c.8-.1 1.5-.3 2.3-.5s1.5-.5 2.1-1c1.2-.8 2-2 2.2-3.5.1-.6.1-1.3.1-1.9v-.4l.1.5c5.5 15.5 22.5 23.5 38 18 6.9-2.5 12.7-7.4 16.1-13.8l1.1-.4c3.6-1.2 7.3-2 11.1-2.6.4.8.9 1.6 1.4 2.4 12.3 19.2 50.8 19.9 50.8 19.9s42.5-1.6 45.8-2.5 13.1.6 15.9 3.3 15.3 3.7 19.4-3.1c4-6.8 8.7-5.5 8.7-5.5.8-1.1 1.6-2.4 2.1-3.6l2.7.1c7.2.4 18.6 1.1 21.1 2.1 3.7 1.5 19.4 1.4 27.9-2.2s35-18.8 35-18.8 16.5-5 19.4-6 10.6-8.3 10.6-8.3l15.8-6.1s16.7-9 23.7-9.9 13.4-7.1 13.4-7.1l44.8-20.8c3-.4 6.1-.3 9 .5 4 1.2 30.1-2.6 37.9-11 0 0 .3-1.1.7-2.9.4 0 .7-.1 1.1-.1 1.7.4 2.7.6 2.7.6 3.3 2.5 6.9 4.7 10.6 6.5 5.3 2.5 11 4 13-.4.3-.7.5-1.4.6-2.1 5.1 3.6 22.4 14.9 22.9 1.5.8-15.9-24.4-30.2-28.6-30.6z" fill="url(#b)"/><path d="m399 450.9s-8.1-.5-19.3 3.1c-3.7 1.2-7.4 2.7-10.9 4.4-16.6 8.3-2.8-36.7-2.8-36.7s4.6 0 10.1-.5c6.6-.5 14.6-1.6 17.5-3.9 5.5-4.2 5.4 33.6 5.4 33.6z" fill="#efb7b9"/><path d="m594.6 362.7c.2 12.6-22.1 23.6-32.7 28.2-3.3 1.4-5.5 2.2-5.5 2.2l-2.3-14.5s1.5-1.2 3.8-2.9c10-7.6 36.4-26.4 36.7-13z" fill="#efb7b9"/><path d="m561.8 390.9c-3.3 1.4-5.5 2.2-5.5 2.2l-2.3-14.5s1.4-1.2 3.8-2.9z" opacity=".1"/><path d="m448.2 395.5s43.8-3.9 44.9-4.1 15.4-5 16.8-5.7 8.3-8.1 23.9-7.7 22.9-2.5 22.9-2.5l5.2 19.6-103.9 11.8z" fill="#e1e7ef"/><path d="m448.2 395.5s43.8-3.9 44.9-4.1 15.4-5 16.8-5.7 8.3-8.1 23.9-7.7 22.9-2.5 22.9-2.5l5.2 19.6-103.9 11.8z" opacity=".05"/><path d="m754 346.8s1.6-19.6 9.9-16.2 22.6 15 26.8 15.3 29 14.5 28.4 30-24-2.5-24-2.5-21.8-5.4-28.8-2.9c-7.1 2.3-12.3-23.7-12.3-23.7z" fill="#b07473"/><path d="m819 375.9c-.6 15.5-24-2.5-24-2.5s-21.8-5.4-28.8-2.9c-2 .7-4-1-5.6-3.8-3.2-5.3-5.4-14.5-6.3-18.2-.2-1-.3-1.6-.3-1.6s1.6-19.6 9.9-16.2 22.6 15 26.7 15.3 29 14.4 28.4 29.9z" opacity=".1"/><path d="m774.1 358.4c-.7 1.8-5.7 4.7-13.5 8.2-3.2-5.3-5.4-14.5-6.3-18.2 1.5-.6 2.5-1.4 2.7-2.2.6-2.7 21.2 1.7 17.1 12.2z" opacity=".1"/><path d="m600.1 396.8 47.8-10.8s32.4-19.1 45-22.9 34.3-9.1 36.2-10 7.2-1.5 11.2-1.8 14.2-2 14.8-4.7 21.2 1.7 17.1 12.2c-4.1 10.4-149.5 55.9-149.5 55.9z" fill="#444053"/><path d="m600.1 396.8 47.8-10.8s32.4-19.1 45-22.9 34.3-9.1 36.2-10 7.2-1.5 11.2-1.8 14.2-2 14.8-4.7 21.2 1.7 17.1 12.2c-4.1 10.4-149.5 55.9-149.5 55.9z" opacity=".1"/><path d="m841.5 378.8c-.6 15.5-24-2.5-24-2.5s-15.2-3.7-24.3-3.6c-1.5 0-3 .2-4.5.6-7 2.4-12.2-23.6-12.2-23.6s.1-1.3.4-3.1c.8-5.4 3.3-15.7 9.5-13.1 8.3 3.4 22.6 15 26.7 15.3s29 14.5 28.4 30z" fill="#b07473"/><path d="m793.1 372.8c-1.5 0-3 .2-4.5.6-7 2.4-12.2-23.6-12.2-23.6s.1-1.3.4-3.1c5.8-1.2 10.7-2.4 10.7-2.4 10.8.5 7.3 21 5.6 28.5z" opacity=".1"/><path d="m790.5 375.7c-7.8 8.3-33.5 12.1-37.4 10.9-2.9-.7-5.9-.9-8.8-.5l-44.1 20.5s-6.3 6.1-13.2 7-23.4 9.8-23.4 9.8l-15.6 6s-7.6 7.3-10.5 8.3-19.2 5.9-19.2 5.9-26.1 15-34.5 18.5-23.9 3.6-27.5 2.2c-2.4-1-13.8-1.7-20.8-2.1-3.3-.2-5.7-.3-5.7-.3l-8.2-62.3s6.8-1.5 15.4-3.5c12.5-2.9 28.8-7 33.3-9.1 7.6-3.6 48.3 7 55.8 7.1s45.5-12 45.5-12 47.5-26.8 57.2-26.8 22.1-4.2 29.9-5.3 27.1-5.5 27.1-5.5c12.9.7 4.7 31.2 4.7 31.2z" fill="#444053"/><path d="m382.7 435.6c1 6.3-.1 12.8-3.1 18.4-3.7 1.2-7.4 2.7-10.9 4.4-16.6 8.3-2.8-36.7-2.8-36.7s4.6 0 10.1-.5c3.6 4.2 5.9 9.1 6.7 14.4z" opacity=".1"/><path d="m381.7 435.8c2.6 16-8.3 31-24.3 33.6-13.9 2.2-27.5-5.8-32.2-19.1-.2-.5-.3-1-.5-1.5-.4-1.2-.7-2.5-.9-3.7-2.5-16 8.4-31 24.4-33.6 14.9-2.3 29.1 6.9 32.9 21.5.3.8.5 1.8.6 2.8z" fill="#efb7b9"/><path d="m534.6 435.7c6.2 12.1 3.1 21.9.8 26.5-3.3-.2-5.7-.3-5.7-.3l-8.2-62.3s6.8-1.5 15.4-3.5l.9-.1s-12 22.5-3.2 39.7z" opacity=".1"/><path d="m531.7 436.2c8.8 17.2-1 29.5-1 29.5s-4.6-1.3-8.6 5.4-16.3 5.6-19.1 3-12.5-4.1-15.7-3.2-45.2 2.5-45.2 2.5-37.9-.6-50.1-19.6c-.5-.8-1-1.6-1.4-2.4 0 0-9.6-17.9-9.9-21.9-.1-1.6.5-4.3 1.3-7 1.3-4.2 3-8.6 3-8.6l6.5-1.7s18.9-10.8 20.4-13.7 33.8-6.1 50.2-2.8 47.4 2.9 47.4 2.9l25.3-2.1c.1-.1-11.9 22.5-3.1 39.7z" fill="#e1e7ef"/><path d="m494.5 465.8c3.8-1.5 7.5-3.2 11-5.3 5.9-3.5-11 5.3-11 5.3z" opacity=".1"/><path d="m401.9 424.6s12.5 23.2 39.1 15.5c26.6-7.6 46.6-2 46.6-2s24.9-1.4 29.5-3.3c6.9-2.6 13.9-4.8 21.1-6.6 3.9-.8 9.4-2.4 13.8-3.7 4.3-1.4 27.5-6.2 27.5-6.2s-7.3-16.4-3.8-18.5c0 0-22.9 4.7-23.2 3s-25.9-2.7-28-1-25 3.3-27 4.1-37.4 3.9-37.4 3.9-53.1-21.6-58.2 14.8z" opacity=".1"/><path d="m569.9 401.5s41.7-24.2 43.2-8.2-39.2 21.8-39.2 21.8z" fill="#efb7b9"/><path d="m402.4 421.5s12.5 23.2 39.1 15.5 46.6-2 46.6-2 24.9-1.4 29.5-3.3c6.9-2.6 13.9-4.8 21.1-6.6 3.9-.8 9.4-2.4 13.8-3.7 4.3-1.4 27.5-6.2 27.5-6.2s-7.3-16.4-3.8-18.5c0 0-22.9 4.7-23.2 3s-25.9-2.7-28-1-25 3.3-27 4.1-37.4 3.9-37.4 3.9-53.1-21.7-58.2 14.8z" opacity=".1"/><path d="m401.6 422.6s12.5 23.2 39.1 15.5 46.6-2 46.6-2 24.9-1.4 29.5-3.3c6.9-2.6 13.9-4.8 21.1-6.6 3.9-.8 9.4-2.4 13.8-3.7 4.3-1.4 27.5-6.2 27.5-6.2s-7.3-16.4-3.8-18.5c0 0-22.9 4.7-23.2 3s-25.9-2.7-28-1-25 3.3-27 4.1-37.4 3.8-37.4 3.8-53.1-21.5-58.2 14.9z" fill="#e1e7ef"/><path d="m488.5 417.5c-.4-1.1 6.3-.6 19.6-3.1 13.3-2.6 35.6-8.7 35.6-8.7s-52.2 19.9-55.2 11.8z" opacity=".1"/><path d="m437.4 410.1s.6 1.8-5.8 5.7" opacity=".1"/><path d="m451 412.8c.9 3.6-1.2 7.3-4.7 8.5" opacity=".1"/><path d="m392.8 452.7 5.2 4.8s5.5 3 6.1 4.6 11.8 1.3 11.8 1.3l13 8.2-5.5-7.7c4.4 1.1 9.1.1 12.7-2.7 6.3-4.7 18.9-17 18.9-17l22.7-17.6.4-11.4-17.8-2.9-41.5 42.1-9.4 1.3-10-1.1z" opacity=".1"/><path d="m391.6 451.9 5.2 4.8s5.5 3 6.1 4.6 11.9 1.3 11.9 1.3l13 8.2-5.5-7.7c4.4 1.1 9.1.1 12.7-2.7 6.3-4.7 18.9-17 18.9-17l22.7-17.6.4-11.4-17.8-2.9-41.6 42.1-9.4 1.3-10-1.1z" fill="#67647e"/><path d="m405.5 449.4-11.4 5.1c-.5-.8-1-1.6-1.4-2.4 0 0-9.6-17.9-9.9-21.9-.1-1.6.5-4.3 1.3-7z" opacity=".1"/><path d="m403.4 448.7-11.4 5.1c-.5-.8-1-1.6-1.4-2.4 0 0-9.6-17.9-9.9-21.9-.1-1.6.5-4.3 1.3-7z" fill="#e1e7ef"/><path d="m381.1 432.9c-.5.6-1.1 1.1-1.8 1.5-1.8.8-3.8 0-5.8.1s-3.9 1.1-5.9 1.3c-1.4 0-2.8-.2-4.2-.5-2.6-.5-5.5-.9-8 .3s-4 4.4-2.6 6.7c-1.6 2.2-4.6 2.9-7.3 2.5-6.3-.9-11.6-6.3-18-2.1-2.8 1.9-2.6 4.7-2.5 7.5-.2-.5-.3-1-.5-1.5-.4-1.2-.7-2.5-.9-3.7-2.5-16 8.4-31 24.4-33.6 15-2.3 29.2 7 33.1 21.5z" fill="url(#c)"/><path d="m322.7 455.5c-1.4.8-2.8 1.3-4.4 1.5-1.7.5-3.5.4-5.2-.2-1.3-.7-2.3-1.9-2.9-3.2-3.7-7.3-.8-16.3-2.4-24.3-.7-3.4-2.1-6.9-1.1-10.2s4.5-5.5 7.4-7.6c4.4-3.2 8.1-7.2 11-11.8 1.5-2.4 2.9-5.1 5.3-6.7 2.8-1.9 6.5-1.9 9.8-1.4s6.7 1.5 10.1 1.3c2.1-.1 4.2-.7 6.3-.9 2.4-.1 4.9 0 7.3.3 2.9.3 5.9.7 8.3 2.2 4.4 2.6 6.1 8 7.2 13s2.3 10.4 6.1 13.7c.6.4 1.1 1 1.4 1.7 0 .8-.3 1.7-.9 2.3l-4.6 6.1c-.6.9-1.4 1.7-2.4 2.3-1.8.8-3.8 0-5.8.1s-3.9 1.2-5.9 1.3c-1.4 0-2.8-.1-4.2-.5-2.6-.5-5.5-.9-8 .3s-4 4.4-2.6 6.7c-1.6 2.2-4.6 2.9-7.3 2.5-6.3-.9-11.6-6.3-18-2.1-4.9 3.3.4 10.5-4.5 13.6z" fill="#585268"/><g opacity=".1"><path d="m377.9 404.3c.9 3.8 1.8 7.9 3.9 11.1-1-2.6-1.7-5.3-2.3-8-.6-3.3-1.8-6.4-3.5-9.3.8 2 1.5 4.1 1.9 6.2z"/><path d="m385.6 421.1-.3-.3c-.2.4-.4.9-.8 1.2l-4.6 6.1c-.6.9-1.4 1.7-2.4 2.3-1.8.8-3.8 0-5.8.1s-3.9 1.2-5.9 1.3c-1.4 0-2.8-.1-4.2-.5-2.6-.5-5.5-.9-8 .3s-4 4.4-2.6 6.7c-1.6 2.2-4.6 2.9-7.3 2.5-6.3-.9-11.6-6.3-18-2.1-5.2 3.5.1 10.6-4.9 13.7-1.3.8-2.8 1.3-4.4 1.5-1.7.3-3.6.6-5.2-.2-.8-.4-1.5-1-2-1.8.2.5.4 1.1.7 1.6.6 1.4 1.6 2.5 2.9 3.2 1.7.6 3.5.7 5.2.2 1.5-.2 3-.7 4.4-1.5 4.9-3.1-.4-10.3 4.9-13.7 6.4-4.2 11.6 1.2 18 2.1 2.7.4 5.7-.3 7.3-2.5-1.4-2.3.1-5.5 2.6-6.7s5.3-.9 8-.3c1.4.4 2.8.5 4.2.5 2-.1 3.9-1.2 5.9-1.3s4 .7 5.8-.1c1-.5 1.8-1.3 2.4-2.3l4.6-6.1c.6-.6.9-1.4.9-2.3-.3-.6-.7-1.2-1.4-1.6z"/></g><path d="m619.3 407.9s7.8 14 6.2 16.3c-1.7 2.3-6.2-16.3-6.2-16.3z" opacity=".1"/><path d="m645 403.8s4.9 8.6 3.9 10.3" opacity=".1"/><path d="m674.5 383.8s5.7 4 3.6 6.6" opacity=".1"/><path d="m680.2 381.6s7.2 8.8 4.8 11.2" opacity=".1"/><path d="m779.6 357.4s1.1 14.8 5.5 13.5c4.3-1.2-5.5-13.5-5.5-13.5z" opacity=".1"/><path d="m744.1 764.2s6.1-23.4-1.1-40.5c-3.1-7.2-4-15.3-2.6-23.2.7-3.7 1.6-7.3 2.9-10.9" fill="none" stroke="#535461" stroke-miterlimit="10" stroke-width="2"/><path d="m738.7 678.8c0 2.9 4.6 11.2 4.6 11.2s4.6-8.3 4.6-11.2c-.1-2.9-2.3-5.1-4.8-4.9-2.4.1-4.3 2.2-4.4 4.9z" fill="#4285f4"/><path d="m731.1 694.6c1.4 2.4 9.2 6.6 9.2 6.6s-.2-9.8-1.5-12.2c-1.4-2.4-4.2-3.1-6.3-1.5-2.2 1.5-2.8 4.8-1.4 7.1z" fill="#4285f4"/><path d="m731.5 721.7c2.3 1.3 10.9.4 10.9.4s-4.5-8.4-6.7-9.7c-2.3-1.2-5 0-6.1 2.6-1 2.5-.2 5.4 1.9 6.7z" fill="#4285f4"/><path d="m735.8 742.2c2 1.7 10.6 2.5 10.6 2.5s-3.2-9.1-5.2-10.8-4.9-1.2-6.4 1.1c-1.5 2.2-1 5.5 1 7.2z" fill="#4285f4"/><path d="m749.9 701.7c-1.8 2-10.2 4.1-10.2 4.1s2.1-9.5 3.9-11.5 4.7-1.9 6.5.1c1.7 2.1 1.6 5.3-.2 7.3z" fill="#4285f4"/><path d="m754.7 725.7c-2.3 1.3-10.9.4-10.9.4s4.5-8.4 6.7-9.7c2.3-1.2 5 0 6.1 2.6 1 2.5.2 5.4-1.9 6.7z" fill="#4285f4"/><path d="m756.6 749.7c-2 1.7-10.6 2.5-10.6 2.5s3.2-9.1 5.2-10.8c2-1.8 4.9-1.4 6.4.8 1.6 2.2 1.3 5.5-.7 7.3-.1.1-.2.2-.3.2z" fill="#4285f4"/><path d="m892.2 740.4s6.1-23.4-1.1-40.5c-3.1-7.2-4-15.3-2.6-23.2.7-3.7 1.6-7.4 2.9-10.9" fill="none" stroke="#535461" stroke-miterlimit="10" stroke-width="2"/><path d="m886.8 655c0 2.9 4.6 11.2 4.6 11.2s4.6-8.3 4.6-11.2c.1-2.9-1.8-5.3-4.4-5.4s-4.7 2.1-4.8 4.9z" fill="#4285f4"/><path d="m879.3 670.8c1.4 2.4 9.2 6.6 9.2 6.6s-.1-9.8-1.5-12.2-4.2-3.1-6.3-1.5c-2.2 1.6-2.8 4.8-1.4 7.1z" fill="#4285f4"/><path d="m879.6 697.9c2.2 1.3 10.8.4 10.8.4s-4.5-8.4-6.7-9.7c-2.2-1.4-5-.4-6.2 2.1s-.4 5.7 1.9 7c.1.1.2.2.2.2z" fill="#4285f4"/><path d="m883.9 718.4c2 1.7 10.6 2.5 10.6 2.5s-3.2-9.1-5.2-10.8c-2.1-1.6-4.9-1-6.4 1.4-1.2 2.2-.8 5.2 1 6.9z" fill="#4285f4"/><path d="m898.1 677.9c-1.8 2-10.2 4.1-10.2 4.1s2.1-9.5 3.9-11.5 4.7-1.9 6.5.1c1.6 2.1 1.6 5.4-.2 7.3z" fill="#4285f4"/><path d="m902.9 701.9c-2.3 1.3-10.9.4-10.9.4s4.5-8.4 6.7-9.6c2.3-1.3 5-.3 6.1 2.3 1.3 2.5.4 5.6-1.9 6.9z" fill="#4285f4"/><path d="m904.7 725.9c-2 1.7-10.6 2.5-10.6 2.5s3.2-9.1 5.2-10.8 4.9-1.2 6.4 1.1 1 5.5-1 7.2z" fill="#4285f4"/><path d="m775.5 738.1s6.1-23.4-1.1-40.5c-3.1-7.2-4-15.3-2.6-23.2.7-3.7 1.6-7.3 2.9-10.9" fill="none" stroke="#535461" stroke-miterlimit="10" stroke-width="2"/><path d="m770.1 652.7c0 2.9 4.6 11.2 4.6 11.2s4.6-8.3 4.6-11.2c-.1-2.9-2.3-5.1-4.8-4.9-2.4.1-4.2 2.2-4.4 4.9z" fill="#4285f4"/><path d="m762.6 668.6c1.4 2.4 9.2 6.6 9.2 6.6s-.1-9.8-1.5-12.2-4.2-3.1-6.3-1.5c-2.2 1.5-2.8 4.7-1.4 7.1z" fill="#4285f4"/><path d="m762.9 695.7c2.2 1.3 10.8.4 10.8.4s-4.5-8.4-6.7-9.7c-2.3-1.3-5-.3-6.1 2.3s-.2 5.7 2 7z" fill="#4285f4"/><path d="m767.2 716.1c2 1.7 10.6 2.5 10.6 2.5s-3.2-9.1-5.2-10.8-4.9-1.2-6.4 1.1c-1.4 2.3-1 5.5 1 7.2z" fill="#4285f4"/><path d="m781.4 675.7c-1.8 2-10.2 4.1-10.2 4.1s2.1-9.5 3.9-11.5 4.7-1.9 6.5.1c1.6 2 1.6 5.3-.2 7.3z" fill="#4285f4"/><path d="m786.2 699.7c-2.3 1.3-10.9.4-10.9.4s4.5-8.4 6.7-9.7c2.3-1.2 5 0 6.1 2.6 1 2.5.1 5.3-1.9 6.7z" fill="#4285f4"/><path d="m788 723.7c-2 1.7-10.6 2.5-10.6 2.5s3.2-9.1 5.2-10.8c2-1.8 4.9-1.4 6.4.8 1.6 2.2 1.3 5.5-.7 7.3-.1 0-.2.1-.3.2z" fill="#4285f4"/><path d="m880.9 763v2.9l.3-.3c3.5-3.3 6.9-6.7 10.3-10.1l.3-.3c11-11.2 21.5-23 31.5-35.4-10.7-21-35.7-21.1-40.2-21h-.7c.1.1-1.6 37.9-1.5 64.2z" fill="#a8a8a8"/><path d="m880.9 763v2.9l.3-.3c3.5-3.3 6.9-6.7 10.3-10.1l.3-.3c11-11.2 21.5-23 31.5-35.4-10.7-21-35.7-21.1-40.2-21h-.7c.1.1-1.6 37.9-1.5 64.2z" fill="#fff" opacity=".1"/><path d="m774.4 722.6.8 6.3 8.6 63.8 2.8 20.9 2.7 20.3c5.1-2.9 10.1-5.9 15.1-8.9l.2-.1 1.1-.7 2.9-1.8c5.9-3.7 11.7-7.6 17.3-11.5l3.5-2.5c3-2.1 5.9-4.2 8.8-6.4 5.8-4.3 11.5-8.8 17.1-13.4l2-1.7 1.6-1.3c7.5-6.3 14.8-12.8 21.9-19.6l.3-.3c3.5-3.3 6.9-6.7 10.3-10.1l-5-29.2c-1-5.9-1.8-11.8-2.5-17.8-.4-3.2-.7-6.4-.9-9.7-.1-.8-.1-1.6-.2-2.3-1.7-24.3-7-74.9-21.8-86.8-2.9-2.4-6.6-3.2-10-2-1.5.5-2.9 1-4.3 1.7-10.4 4.7-20.2 14.1-28.4 23.8-11.7 14-21.2 30.2-28 47.9l-15 38.3v.1l-.1.4z" fill="#a8a8a8"/><path d="m810.9 788 17.4-67.4s16.3 49.6 29.1 66.3l1.6-1.3-23.1-64.7s-7.6-36.8-1.5-50.3c4.8-10.7 20.6-46.5 26.8-60.8-2.9-2.4-6.6-3.2-10-2-1.5.5-2.9 1-4.3 1.7-8 14.4-22.8 43.1-23.9 60.9-.9 15.6-.3 31.2 1.8 46.6z" fill="#fff" opacity=".1"/><path d="m731.6 861.6c7.3-2.9 14.4-6 21.5-9.2 12.4-5.7 24.4-11.8 36.2-18.5 5.1-2.9 10.1-5.9 15.1-8.9l.2-.1-.6-4.2-.6-4.5-2.1-15s-9.6-47.2-19.8-71c-1.5-3.9-3.5-7.5-5.9-10.7-.2-.2-.3-.4-.5-.5-2.1-1.5-4.5-2.2-7-1.9-3.2.4-6.3 2-8.6 4.6-5 5-10.4 15.1-15.1 34.5-7.2 29.5-11 73.3-12.8 105.4z" fill="#a8a8a8"/><path d="m753.1 852.5c12.4-5.7 24.4-11.8 36.2-18.5 5.1-2.9 10.1-5.9 15.1-8.9 0-1.4-.2-2.8-.3-4.3s-1.3-7.9-14.7-7.3c-.9 0-1.8.1-2.8.2-14.3 2-26.4 13.1-31.3 28.5-1.1 3.3-1.8 6.7-2.2 10.3z" fill="#fff" opacity=".1"/><path d="m770.8 741.2c.5-13.5-6-18.1-11.3-19.6 2.3-2.6 5.4-4.2 8.6-4.6 3.7 3.5 6.3 8.3 7.5 13.6l13.6 75.1s-19.1-42-18.4-64.5z" fill="#fff" opacity=".1"/><path d="m829.7 805-3.7 5.8 3.5-2.5c3-2.1 5.9-4.2 8.8-6.4l-5.7-1.3z" fill="#a8a8a8"/><path d="m829.5 808.4c3-2.1 5.9-4.2 8.8-6.4 5.8-4.3 11.5-8.8 17.1-13.4-3.9-3.2-7.7-5.4-10.3-5.1 0 0-13.3 1-15.4 21.6-.1 1-.2 2.1-.2 3.3z" fill="#fff" opacity=".1"/><path d="m775.1 718.9.3 1 28 96.2 2.3 8 2.9-1.8c-3.5-32.5-12.7-63.8-27.1-92.2-2.9-5.6-5.1-9.1-6-10.6-.2-.3-.3-.5-.4-.6z" opacity=".1"/><path d="m880.9 763c.1.9.2 1.8.3 2.7 3.5-3.3 6.9-6.7 10.3-10.1l.3-.3-7.7-46.7-1.6-9.6c-3.5 21.1-4 42.7-1.6 64z" opacity=".1"/><g fill="#4285f4"><path d="m515.3 74.7h12.8c-4.9-.2-8.8-4.3-8.6-9.2.2-4.7 3.9-8.5 8.6-8.6h103.4c4.9.2 8.8 4.3 8.6 9.2-.2 4.7-3.9 8.5-8.6 8.6h-12.8c4.9 0 8.9 4 8.9 8.9s-4 8.9-8.9 8.9h17.9c4.9.2 8.8 4.3 8.6 9.2-.2 4.7-3.9 8.5-8.6 8.6h-103.4c-4.9-.2-8.8-4.3-8.6-9.2.2-4.7 3.9-8.5 8.6-8.6h-17.9c-4.9 0-8.9-4-8.9-8.9s4-8.9 8.9-8.9z" opacity=".1"/><path d="m662.7 211.6h12.8c-4.9 0-8.9-4-8.9-8.9s4-8.9 8.9-8.9h103.4c4.9 0 8.9 4 8.9 8.9s-4 8.9-8.9 8.9h-12.9c4.9 0 8.9 4 8.9 8.9s-4 8.9-8.9 8.9h17.9c4.9.2 8.8 4.3 8.6 9.2-.2 4.7-3.9 8.5-8.6 8.6h-103.4c-4.9-.2-8.8-4.3-8.6-9.2.2-4.7 3.9-8.5 8.6-8.6h-17.9c-4.9 0-8.9-4-8.9-8.9s4-8.9 9-8.9z" opacity=".1"/><path d="m512.9 639h6c-2.3 0-4.2-1.9-4.2-4.2s1.9-4.2 4.2-4.2h49c2.3 0 4.2 1.9 4.2 4.2s-1.9 4.2-4.2 4.2h-6c2.3 0 4.2 1.9 4.2 4.2s-1.9 4.2-4.2 4.2h8.4c2.3 0 4.2 1.9 4.2 4.2s-1.9 4.2-4.2 4.2h-49c-2.3 0-4.2-1.9-4.2-4.2s1.9-4.2 4.2-4.2h-8.5c-2.3 0-4.2-1.9-4.2-4.2.1-2.3 2-4.2 4.3-4.2z" opacity=".1"/><path d="m378.2 710.9h4.8c-1.9-.1-3.3-1.7-3.2-3.6.1-1.7 1.5-3.1 3.2-3.2h39.1c1.9.1 3.3 1.7 3.2 3.6-.1 1.7-1.5 3.1-3.2 3.2h-4.8c1.9.1 3.3 1.7 3.2 3.6-.1 1.7-1.5 3.1-3.2 3.2h6.8c1.9.1 3.3 1.7 3.2 3.6-.1 1.7-1.5 3.1-3.2 3.2h-39.1c-1.9.1-3.5-1.3-3.6-3.2s1.3-3.5 3.2-3.6h.4-6.8c-1.9.1-3.5-1.3-3.6-3.2s1.3-3.5 3.2-3.6z" opacity=".1"/><path d="m213.1 585.1h6c-2.3 0-4.2-1.9-4.2-4.2s1.9-4.2 4.2-4.2h48.9c2.3 0 4.2 1.9 4.2 4.2s-1.9 4.2-4.2 4.2h-6c2.3 0 4.2 1.9 4.2 4.2s-1.9 4.2-4.2 4.2h8.5c2.3 0 4.2 1.9 4.2 4.2s-1.9 4.2-4.2 4.2h-49c-2.3 0-4.2-1.9-4.2-4.2s1.9-4.2 4.2-4.2h-8.5c-2.3 0-4.2-1.9-4.2-4.2.1-2.3 2-4.2 4.3-4.2z" opacity=".1"/><path d="m639.9 717.3h6c-2.3 0-4.2-1.9-4.2-4.2s1.9-4.2 4.2-4.2h49c2.3 0 4.2 1.9 4.2 4.2s-1.9 4.2-4.2 4.2h-6c2.3 0 4.2 1.9 4.2 4.2s-1.9 4.2-4.2 4.2h8.5c2.3.1 4.1 2.1 4 4.4-.1 2.2-1.8 3.9-4 4h-49c-2.3.1-4.3-1.7-4.4-4s1.7-4.3 4-4.4h.4-8.4c-2.3 0-4.2-1.9-4.2-4.2-.1-2.3 1.8-4.2 4.1-4.2z" opacity=".1"/><path d="m707.9 307.8c.7-1.3.3-2.9-.9-3.7-.1-.1-.2-.1-.2-.2-.5-.6-.5-1.5.1-2 .4-.3.8-.4 1.3-.3.1 0 .2.1.3.1 1.3.7 2.9.3 3.7-.9.1-.1.1-.2.2-.2.6-.5 1.5-.5 2 .1.3.4.4.8.3 1.3 0 .1-.1.2-.1.3-.7 1.3-.3 2.9.9 3.7.1.1.2.1.2.2.5.6.5 1.5-.1 2-.4.3-.8.4-1.3.3-.1 0-.2-.1-.3-.1-1.3-.7-2.9-.3-3.7.9-.1.1-.1.2-.2.2-.6.5-1.5.5-2-.1-.3-.4-.4-.9-.3-1.3 0-.2.1-.3.1-.3z" opacity=".3"/><path d="m1024.6 139.1c.7-1.3.3-2.9-.9-3.7-.1-.1-.2-.1-.2-.2-.5-.6-.5-1.5.1-2 .4-.3.9-.4 1.3-.3.1 0 .2.1.3.1 1.3.7 2.9.3 3.7-.9.1-.1.1-.2.2-.2.6-.5 1.5-.5 2 .1.3.4.4.8.3 1.3 0 .1-.1.2-.1.3-.7 1.3-.3 2.9.9 3.7.1.1.2.1.2.2.5.6.5 1.5-.1 2-.4.3-.8.4-1.3.3-.1 0-.2-.1-.3-.1-1.3-.7-2.9-.3-3.7.9-.1.1-.1.2-.2.2-.6.5-1.5.5-2-.1-.3-.4-.4-.9-.3-1.3 0-.1 0-.2.1-.3z" opacity=".3"/><path d="m1029.5 615.9c.7-1.4.3-3.2-.9-4.2-.1-.1-.2-.1-.2-.2-.5-.7-.5-1.7.1-2.3.4-.4.9-.5 1.3-.4.1 0 .2.1.3.1 1.3.8 2.9.3 3.7-1 .1-.1.1-.2.2-.3.6-.6 1.5-.6 2 .1.3.4.4 1 .3 1.5 0 .1-.1.2-.1.3-.7 1.4-.3 3.2.9 4.2.1.1.2.1.2.2.5.7.4 1.7-.2 2.3-.3.3-.8.4-1.2.3-.1 0-.2-.1-.3-.1-1.3-.8-2.9-.3-3.7 1-.1.1-.1.2-.2.3-.6.6-1.5.5-2-.1-.3-.4-.4-.9-.3-1.5s0-.1.1-.2z" opacity=".3"/><path d="m49.3 38c.7-1.3.3-2.9-.9-3.7-.1-.1-.2-.1-.2-.2-.5-.6-.5-1.5.1-2 .4-.3.9-.5 1.3-.3.1 0 .2.1.3.1 1.3.7 2.9.3 3.7-.9.1-.1.1-.2.2-.2.6-.5 1.5-.5 2 .1.3.4.4.8.3 1.3 0 .1-.1.2-.1.3-.7 1.3-.3 2.9.9 3.7.1.1.2.1.2.2.5.6.5 1.5-.1 2-.4.3-.9.4-1.3.3-.1 0-.2-.1-.3-.1-1.3-.7-2.9-.3-3.7.9-.1.1-.1.2-.2.2-.6.5-1.5.5-2-.1-.3-.4-.4-.8-.3-1.3 0-.1 0-.2.1-.3z" opacity=".3"/><path d="m1.5 7.6c.7-1.2.3-2.8-.9-3.6-.1-.1-.1-.1-.2-.2-.5-.6-.5-1.5.1-2 .4-.3.8-.4 1.3-.3.1 0 .2.1.3.1 1.3.7 2.9.3 3.7-.9 0-.2.1-.2.2-.3.6-.5 1.5-.5 2 .1.3.3.4.8.3 1.3 0 .1-.1.2-.1.3-.7 1.2-.3 2.8.9 3.6.1.1.2.2.2.3.6.6.5 1.5 0 2-.3.3-.9.5-1.4.3-.1 0-.2-.1-.3-.1-1.3-.7-2.9-.3-3.7.9 0 .1-.1.2-.2.3-.6.5-1.5.5-2-.1-.3-.4-.4-.9-.3-1.4 0-.1.1-.2.1-.3z" opacity=".3"/><path d="m381.9 228.2c.7-1.3.3-2.9-.9-3.7-.1-.1-.2-.1-.2-.2-.5-.6-.5-1.5.1-2 .4-.3.8-.4 1.3-.3.1 0 .2.1.3.1 1.3.7 2.9.3 3.7-.9.1-.1.1-.2.2-.2.6-.5 1.5-.5 2 .1.3.4.4.9.3 1.3 0 .1-.1.2-.1.3-.7 1.3-.3 2.9.9 3.7.1.1.2.1.2.2.5.6.5 1.5-.1 2-.4.3-.9.5-1.3.3-.1 0-.2-.1-.3-.1-1.3-.7-2.9-.3-3.7.9-.1.1-.1.2-.2.2-.6.5-1.5.5-2-.1-.3-.4-.4-.8-.3-1.3 0-.1.1-.2.1-.3z" opacity=".3"/><path d="m205.5 345.7c.7-1.3.3-2.9-.9-3.7-.1-.1-.2-.1-.2-.2-.5-.6-.5-1.5.1-2 .4-.3.9-.5 1.3-.3.1 0 .2.1.3.1 1.3.7 2.9.3 3.7-.9.1-.1.1-.2.2-.2.6-.5 1.5-.5 2 .1.3.4.4.9.3 1.3 0 .1-.1.2-.1.3-.7 1.3-.3 2.9.9 3.7.1.1.2.1.2.2.5.6.5 1.5-.1 2-.4.3-.9.5-1.3.3-.1 0-.2-.1-.3-.1-1.3-.7-2.9-.3-3.7.9-.1.1-.1.2-.2.2-.6.5-1.5.5-2-.1-.3-.4-.4-.9-.3-1.3.1-.1.1-.2.1-.3z" opacity=".3"/><path d="m481.5 192c.5-1.3-.1-2.9-1.3-3.5-.1 0-.2-.1-.3-.2-.6-.5-.7-1.4-.2-2 .3-.4.8-.6 1.3-.5.1 0 .2 0 .3.1 1.4.5 2.9-.1 3.5-1.3.1-.1.1-.2.2-.3.5-.6 1.4-.6 2-.1.4.3.5.8.5 1.3 0 .1-.1.2-.1.3-.5 1.4.1 2.9 1.3 3.5.1.1.2.1.3.2.6.5.6 1.4.1 2-.3.4-.8.5-1.2.5-.1 0-.2 0-.3-.1-1.3-.5-2.9.1-3.5 1.3-.1.1-.1.2-.2.3-.5.6-1.4.6-2 .1-.4-.3-.5-.8-.5-1.3.1-.1.1-.2.1-.3z" opacity=".3"/><path d="m931.4 501c1.8-.8 2.8-2.9 2.2-4.8 0-.1-.1-.3-.1-.4 0-1.1.8-2 2-2 .6 0 1.2.3 1.6.7.1.1.2.3.2.4.8 1.8 2.9 2.8 4.8 2.2.1 0 .3-.1.4-.1 1.1 0 2 .8 2.1 1.9 0 .6-.3 1.2-.7 1.6-.1.1-.3.2-.4.2-1.8.8-2.8 2.9-2.2 4.8.1.1.1.3.1.4 0 1.1-.8 2-1.9 2.1-.6 0-1.2-.3-1.6-.7-.1-.1-.2-.3-.2-.4-.8-1.8-2.9-2.8-4.8-2.2-.1 0-.3.1-.4.1-1.1 0-2-.8-2.1-1.9 0-.6.3-1.2.7-1.6.1-.2.2-.3.3-.3z" opacity=".3"/><path d="m322.5 538.9c1.8-.8 2.8-2.9 2.2-4.8 0-.1-.1-.3-.1-.4 0-1.1.8-2 1.9-2.1.6 0 1.2.3 1.6.7.1.1.2.3.2.4.8 1.8 2.9 2.8 4.8 2.2.1 0 .3-.1.4-.1 1.1 0 2 .8 2 2 0 .6-.3 1.2-.7 1.6-.1.1-.2.2-.4.2-1.8.8-2.8 2.9-2.2 4.8 0 .1.1.3.1.4 0 1.1-.8 2-2 2-.6 0-1.2-.3-1.6-.7-.1-.1-.2-.3-.2-.4-.8-1.8-2.9-2.8-4.8-2.2-.1 0-.3.1-.4.1-1.1 0-2-.8-2.1-1.9 0-.6.3-1.2.7-1.6.3-.1.5-.2.6-.2z" opacity=".3"/><path d="m512.8 548.6c1.8-.8 2.8-2.9 2.2-4.8 0-.1-.1-.3-.1-.4 0-1.1.8-2 1.9-2.1.6 0 1.2.3 1.6.7.1.1.2.3.2.4.8 1.8 2.9 2.8 4.8 2.2.1 0 .3-.1.4-.1 1.1 0 2 .8 2 2 0 .6-.3 1.2-.7 1.6-.1.1-.3.2-.4.2-1.8.8-2.8 2.9-2.2 4.8 0 .1.1.3.1.4 0 1.1-.8 2-1.9 2.1-.6 0-1.2-.3-1.6-.7-.1-.1-.2-.3-.2-.4-.8-1.8-2.9-2.8-4.8-2.2-.1.1-.3.1-.4.1-1.1 0-2-.8-2-2 0-.6.3-1.2.7-1.6.2-.1.3-.2.4-.2z" opacity=".3"/><circle cx="121.9" cy="103.3" opacity=".1" r="16.5"/><circle cx="944.7" cy="119.8" opacity=".1" r="16.5"/><circle cx="199.9" cy="21.4" opacity=".1" r="9"/><circle cx="1060.8" cy="283.3" opacity=".1" r="9"/><circle cx="138.4" cy="744" opacity=".1" r="9"/><circle cx="172.9" cy="784.5" opacity=".1" r="9"/><circle cx="105.4" cy="809" opacity=".1" r="9"/></g></svg>